<?xml version="1.0" encoding="UTF-8"?> <svg xmlns="http://www.w3.org/2000/svg" width="141" height="163" viewBox="0 0 141 163" fill="none"><g clip-path="url(#clip0_542_657)"><path d="M22.1642 144.157H22.3047L22.3796 146.03H22.1642C22.005 144.972 21.2653 144.232 20.1604 144.232C18.4562 144.232 17.9412 145.918 17.9412 147.341C17.9412 148.765 18.4936 150.31 20.1791 150.31C21.5088 150.31 21.9957 149.355 22.2766 148.212H22.4451V150.291H22.3234L22.0987 149.804C21.4619 150.31 20.8158 150.516 20.0012 150.516C18.0722 150.516 16.752 149.271 16.752 147.332C16.752 145.393 18.1472 143.998 20.0855 143.998C20.8627 143.998 21.3589 144.176 22.0144 144.588L22.1642 144.139V144.157Z" fill="white"></path><path d="M28.4944 147.819L27.4456 145.141L26.3875 147.819H28.485H28.4944ZM26.1815 148.362C26.0411 148.728 25.7227 149.43 25.7227 149.795C25.7227 150.207 26.2096 150.179 26.4905 150.207V150.423C26.1347 150.423 25.7976 150.395 25.4418 150.385C25.1047 150.395 24.7863 150.413 24.4492 150.423V150.207C24.9642 150.151 25.1702 150.001 25.3669 149.533C25.6291 148.924 25.8912 148.325 26.1534 147.716L27.6048 143.979H27.9325L29.8521 148.812C29.9645 149.055 30.1799 149.636 30.3484 149.861C30.5544 150.142 30.8447 150.179 31.1724 150.217V150.432C30.723 150.432 30.2641 150.404 29.824 150.395C29.3652 150.404 28.897 150.423 28.4476 150.432V150.217C28.7097 150.217 29.1779 150.226 29.1779 149.861C29.1779 149.617 29.0749 149.336 28.9907 149.121L28.6161 148.138H26.2658L26.1815 148.372V148.362Z" fill="white"></path><path d="M33.2887 148.503H33.504C33.6913 149.467 34.2063 150.273 35.3019 150.273C36.0416 150.273 36.6596 149.851 36.6596 149.083C36.6596 148.222 35.9105 147.875 35.2176 147.594C34.3561 147.266 33.4291 146.807 33.4291 145.721C33.4291 144.635 34.2812 144.007 35.3112 144.007C35.8356 144.007 36.3225 144.185 36.7439 144.494L36.9593 144.12H37.0623L37.1091 145.768H36.8937C36.6784 144.981 36.2289 144.27 35.3019 144.27C34.6932 144.27 34.1876 144.663 34.1876 145.281C34.1876 146.03 34.8618 146.292 35.4517 146.536C36.4443 146.948 37.5492 147.435 37.5492 148.69C37.5492 149.945 36.3881 150.535 35.2738 150.535C34.6277 150.535 34.122 150.348 33.607 149.964L33.3823 150.366H33.2793V148.512L33.2887 148.503Z" fill="white"></path><path d="M45.8353 145.609H45.5825C45.5263 144.682 45.1611 144.429 44.2716 144.429C43.9157 144.429 43.3445 144.382 43.3445 144.682V149.196C43.3445 149.898 43.4756 150.17 44.4027 150.207V150.423C43.8783 150.423 43.3445 150.395 42.8202 150.385C42.3145 150.395 41.8182 150.413 41.3126 150.423V150.207C42.2303 150.17 42.3707 149.908 42.3707 149.196V144.682C42.3707 144.401 41.9493 144.429 41.5748 144.429C40.629 144.429 40.1796 144.476 40.1421 145.609H39.9268V144.129H45.7698L45.854 145.609H45.8353Z" fill="white"></path><path d="M49.1134 145.937C49.1134 145.637 49.1134 144.925 49.0197 144.672C48.898 144.354 48.5047 144.354 48.2051 144.354V144.139C48.6639 144.148 49.1134 144.167 49.5722 144.176C50.0591 144.167 50.5367 144.148 51.0142 144.139V144.354C50.7052 144.354 50.3213 144.354 50.1996 144.672C50.1059 144.935 50.1059 145.637 50.1059 145.937V148.615C50.1059 148.924 50.1059 149.627 50.1996 149.879C50.3213 150.198 50.7146 150.198 51.0142 150.198V150.413C50.5648 150.413 50.0966 150.385 49.6471 150.376C49.1696 150.385 48.6826 150.404 48.2144 150.413V150.198C48.5141 150.198 48.9074 150.198 49.0291 149.879C49.1227 149.617 49.1227 148.915 49.1227 148.615V145.937H49.1134Z" fill="white"></path><path d="M54.3757 145.937C54.3757 145.637 54.3757 144.925 54.282 144.672C54.1603 144.354 53.767 144.354 53.4674 144.354V144.139C53.9262 144.148 54.3757 144.167 54.8251 144.176C55.312 144.167 55.7896 144.148 56.2671 144.139V144.354C55.9581 144.354 55.5742 144.354 55.4525 144.672C55.3589 144.935 55.3589 145.637 55.3589 145.937V148.756C55.3589 149.973 55.5461 150.17 56.7541 150.17C57.2035 150.17 57.7185 150.189 58.1024 149.936C58.58 149.636 58.6362 149.28 58.7205 148.746H58.9546L58.8703 150.432C58.7111 150.432 58.5425 150.413 58.374 150.395C56.7353 150.423 55.0873 150.423 53.458 150.432V150.217C53.767 150.217 54.1509 150.217 54.2727 149.898C54.3663 149.636 54.3663 148.934 54.3663 148.634V145.956L54.3757 145.937Z" fill="white"></path><path d="M62.1755 145.937C62.1755 145.637 62.1755 144.925 62.0818 144.672C61.9601 144.354 61.5668 144.354 61.2672 144.354V144.139C61.726 144.148 62.1755 144.167 62.6249 144.176C63.1118 144.167 63.5894 144.148 64.067 144.139V144.354C63.7579 144.354 63.374 144.354 63.2523 144.672C63.1587 144.935 63.1587 145.637 63.1587 145.937V148.756C63.1587 149.973 63.3459 150.17 64.5539 150.17C65.0033 150.17 65.5183 150.189 65.9023 149.936C66.3798 149.636 66.436 149.28 66.5203 148.746H66.7544L66.6701 150.432C66.5109 150.432 66.3424 150.413 66.1738 150.395C64.5351 150.423 62.8871 150.423 61.2578 150.432V150.217C61.5668 150.217 61.9507 150.217 62.0725 149.898C62.1661 149.636 62.1661 148.934 62.1661 148.634V145.956L62.1755 145.937Z" fill="white"></path><path d="M72.635 147.819L71.5863 145.141L70.5282 147.819H72.6256H72.635ZM70.3221 148.362C70.1817 148.728 69.8633 149.43 69.8633 149.795C69.8633 150.207 70.3502 150.179 70.6312 150.207V150.423C70.2753 150.423 69.9382 150.395 69.5824 150.385C69.2453 150.395 68.9269 150.413 68.5898 150.423V150.207C69.1049 150.151 69.3109 150.001 69.5075 149.533C69.7697 148.924 70.0319 148.325 70.2941 147.716L71.7454 143.979H72.0732L73.9928 148.812C74.1051 149.055 74.3205 149.636 74.489 149.861C74.695 150.142 74.9853 150.179 75.3037 150.217V150.432C74.8542 150.432 74.3954 150.404 73.9553 150.395C73.4965 150.404 73.0377 150.423 72.5788 150.432V150.217C72.841 150.217 73.3092 150.226 73.3092 149.861C73.3092 149.617 73.2062 149.336 73.1219 149.121L72.7474 148.138H70.3971L70.3128 148.372L70.3221 148.362Z" fill="white"></path><path d="M84.3018 149.177C84.3018 150.086 84.3299 150.133 85.2476 150.207V150.423C84.77 150.423 84.2924 150.395 83.8243 150.385C83.3373 150.395 82.8504 150.413 82.3729 150.423V150.207C83.2999 150.133 83.3373 150.076 83.3373 149.177V147.997L82.4665 146.48C82.3635 146.293 81.6425 144.841 81.3054 144.513C81.1462 144.336 80.9777 144.382 80.7529 144.345V144.129C81.1837 144.139 81.6144 144.158 82.0451 144.167C82.4946 144.158 82.9347 144.139 83.3842 144.129V144.345C83.1782 144.345 82.6725 144.326 82.6725 144.645C82.6725 144.888 82.8036 145.103 82.916 145.309L84.152 147.604L84.7606 146.63C84.9666 146.293 85.7064 145.075 85.7064 144.738C85.7064 144.373 85.2756 144.364 85.0228 144.336V144.12C85.3693 144.129 85.697 144.148 86.0435 144.158C86.3618 144.148 86.6615 144.129 86.9705 144.12V144.336C86.418 144.382 86.2214 144.757 85.9592 145.178L84.3112 147.904V149.168L84.3018 149.177Z" fill="white"></path><path d="M93.7594 145.937C93.7594 145.637 93.7594 144.925 93.6658 144.672C93.5441 144.354 93.1508 144.354 92.8512 144.354V144.139C93.31 144.148 93.7501 144.167 94.2089 144.176C94.6958 144.167 95.1734 144.148 95.6509 144.139V144.354C95.3513 144.354 94.958 144.354 94.8363 144.672C94.7426 144.935 94.7426 145.637 94.7426 145.937V148.756C94.7426 149.973 94.9299 150.17 96.1379 150.17C96.5873 150.17 97.1023 150.189 97.4862 149.936C97.9638 149.636 98.02 149.28 98.1042 148.746H98.3383L98.2541 150.432C98.0949 150.432 97.9263 150.413 97.7578 150.395C96.1191 150.423 94.4711 150.423 92.8418 150.432V150.217C93.1414 150.217 93.5347 150.217 93.6564 149.898C93.7501 149.636 93.7501 148.934 93.7501 148.634V145.956L93.7594 145.937Z" fill="white"></path><path d="M101.559 145.974C101.559 145.665 101.559 144.963 101.466 144.71C101.344 144.382 100.951 144.382 100.651 144.382V144.129H105.38V145.562H105.164C104.986 144.448 104.49 144.382 103.479 144.382H102.795C102.655 144.382 102.589 144.373 102.552 144.42C102.533 144.457 102.542 144.56 102.542 144.776V147.033C103.844 147.089 104.031 146.546 104.097 145.862H104.312C104.303 146.293 104.293 146.733 104.275 147.154C104.293 147.548 104.303 147.941 104.312 148.334H104.097C103.966 147.332 103.46 147.285 102.542 147.285V148.84C102.542 149.13 102.542 149.571 102.711 149.805C102.954 150.142 103.544 150.161 103.928 150.151C104.921 150.132 105.567 150.011 105.689 148.878H105.904L105.82 150.413H100.642V150.198C100.951 150.198 101.335 150.198 101.456 149.87C101.55 149.608 101.55 148.906 101.55 148.606V145.984L101.559 145.974Z" fill="white"></path><path d="M111.589 143.183L113.078 142.003C113.19 141.91 113.34 141.788 113.499 141.788C113.686 141.788 113.836 141.938 113.836 142.125C113.836 142.444 113.461 142.537 113.227 142.64L111.954 143.193H111.598L111.589 143.183ZM109.838 147.295C109.838 148.784 110.428 150.273 112.16 150.273C113.892 150.273 114.37 148.681 114.37 147.267C114.37 145.853 113.78 144.27 112.104 144.27C110.428 144.27 109.838 145.89 109.838 147.295ZM108.648 147.295C108.648 145.403 110.306 144.008 112.141 144.008C113.976 144.008 115.559 145.337 115.559 147.22C115.559 149.102 114.023 150.526 112.104 150.526C110.184 150.526 108.648 149.205 108.648 147.295Z" fill="white"></path><path d="M119.155 144.916C118.855 144.495 118.63 144.354 118.115 144.345V144.129C118.424 144.139 118.715 144.157 119.024 144.167C119.267 144.157 119.529 144.139 119.773 144.129L123.79 149.027H123.808V146.377C123.808 145.965 123.808 145.3 123.724 144.916C123.612 144.382 123.35 144.42 122.881 144.345V144.129C123.237 144.139 123.574 144.157 123.93 144.167C124.258 144.157 124.586 144.139 124.941 144.129V144.345C124.586 144.382 124.342 144.345 124.22 144.766C124.127 145.075 124.108 146.049 124.108 146.433V150.535H123.818C123.612 150.282 123.396 150.011 123.19 149.748L119.473 145.234H119.454V148.428C119.454 148.784 119.454 149.496 119.595 149.814C119.754 150.189 120.072 150.17 120.419 150.207V150.423C120.054 150.423 119.688 150.395 119.323 150.385C118.967 150.395 118.621 150.413 118.265 150.423V150.207C118.64 150.17 118.986 150.151 119.08 149.739C119.155 149.393 119.155 148.793 119.155 148.428V144.916Z" fill="white"></path><path d="M60.668 162.766H83.1317" stroke="white" stroke-width="0.5"></path><mask id="mask0_542_657" style="mask-type:luminance" maskUnits="userSpaceOnUse" x="0" y="-1" width="141" height="135"><path d="M100.933 -0.000144414C100.933 -0.000144414 87.1678 0.589859 68.4215 9.10276C68.4215 9.10276 66.9233 9.33689 64.9476 8.83117C62.9812 8.32545 32.4271 -0.889831 9.87909 23.1411C9.87909 23.1411 -14.3638 50.0564 13.119 91.9185C13.119 91.9185 39.965 128.358 68.3279 132.844C69.9759 133.106 74.6297 133.631 77.1392 133.425C83.0759 132.947 95.4829 129.454 111.804 111.314C135.036 85.4941 142.508 54.7858 140.317 39.8766C138.088 24.6489 130.279 -0.459036 100.933 -0.000144414Z" fill="white"></path></mask><g mask="url(#mask0_542_657)"><path d="M100.933 -0.000144414C100.933 -0.000144414 87.1678 0.589859 68.4215 9.10276C68.4215 9.10276 66.9233 9.33689 64.9476 8.83117C62.9812 8.32545 32.4271 -0.889831 9.87909 23.1411C9.87909 23.1411 -14.3638 50.0564 13.119 91.9185C13.119 91.9185 39.965 128.358 68.3279 132.844C69.9759 133.106 74.6297 133.631 77.1392 133.425C83.0759 132.947 95.4829 129.454 111.804 111.314C135.036 85.4941 142.508 54.7858 140.317 39.8766C138.088 24.6489 130.279 -0.459036 100.933 -0.000144414Z" fill="#FDCF00"></path><path d="M34.234 65.3965C34.0655 66.127 32.8107 72.9729 35.6386 74.3215C37.09 75.0145 39.6744 74.0218 42.109 71.8397C41.3692 71.2872 40.6857 70.5848 40.0864 69.7138C33.2134 59.7119 46.5568 47.3218 50.4802 56.125C52.2219 60.0397 50.7143 65.6026 47.7741 70.1353C49.9652 69.948 52.2593 68.8242 53.7014 67.6442C55.4056 66.2394 57.5124 68.8054 55.8082 70.2102C52.868 72.617 48.8603 74.0218 45.3395 73.2913C41.9966 76.925 37.7735 79.0228 34.2059 77.3183C32.1553 76.335 31.1252 74.3121 30.7132 72.0458C23.372 81.8604 13.1655 75.2393 15.3753 66.8668C17.2575 59.74 25.8722 58.56 32.5766 59.1125C33.204 56.3498 33.5224 53.9898 33.6441 52.9128C30.6945 52.763 28.2412 49.7568 27.7917 42.4051C27.5857 39.015 27.9322 35.7184 28.6813 32.5343C18.3156 34.6602 8.50232 34.0795 5.25309 32.9183C2.90278 32.0754 4.16689 28.5541 6.50784 29.397C9.18588 30.3522 19.3924 30.9422 29.8611 28.4417C31.7339 23.0474 33.0448 20.7061 36.3596 15.855C37.605 14.0288 40.3486 15.9018 39.0938 17.728C36.3877 21.6801 35.4513 23.1036 33.7097 27.3741C35.8259 26.7092 37.914 25.8944 39.9085 24.9205C42.1464 23.8341 43.7851 27.1962 41.5471 28.2825C38.5882 29.7248 35.442 30.8392 32.2864 31.6727C31.3406 35.0629 30.8631 38.5748 31.0878 42.1991C31.9305 56.0501 39.356 47.069 41.4722 40.4572C41.5284 40.2699 42.6334 33.5832 43.4293 29.3033C43.8319 27.1306 47.0905 27.73 46.6879 29.9027C45.3114 37.348 44.5997 42.0212 44.7683 44.9337C45.0305 49.4852 48.2235 48.9045 50.939 47.2937C48.3921 42.7423 47.2591 35.8776 49.0007 29.2565C53.5609 11.9404 74.695 14.572 63.1775 37.4604C61.7261 40.3354 58.9638 44.812 55.546 47.9868C57.9244 50.1595 60.4058 49.4571 63.2711 43.6975C66.3237 37.554 68.6834 27.0089 69.3763 14.1318C69.5917 10.1985 72.869 14.9747 76.137 13.7104C77.6539 13.1204 78.7214 14.0382 78.3469 15.6302C77.888 17.625 71.9514 46.0013 77.2045 46.404C81.8583 46.7599 82.3265 20.5188 82.0175 15.2182C80.9125 12.212 84.63 13.3826 85.9409 13.8321C88.1601 14.5907 92.6454 11.6313 91.812 15.3774C91.7933 15.4804 87.6826 34.1357 90.2014 44.9524C91.6903 51.3488 94.387 48.0804 95.9508 45.5612C93.2072 41.4405 93.3851 34.117 96.4939 27.7955C99.3124 22.0828 106.204 17.7655 113.105 21.165C115.137 22.1671 116.542 23.4782 117.431 24.9954L117.89 23.8622C118.724 21.8206 121.795 23.0662 120.961 25.1171C120.933 25.1827 116.532 40.1388 116.429 41.5061C116.083 45.9358 122.525 56.8274 134.492 50.1595C136.421 49.0825 137.994 52.0512 136.047 53.0907C121.654 60.7795 113.527 49.0169 113.049 42.9389C109.847 48.6423 104.378 49.3447 100.633 48.6891C99.7993 48.5393 99.0502 48.2677 98.376 47.8744C98.2168 48.0991 98.0202 48.352 97.8142 48.6236C93.6847 53.8493 88.8718 53.8025 86.9803 45.6923C85.0888 37.5727 86.484 25.7727 88.0384 17.3534C87.0552 17.4377 86.1656 17.316 85.4072 17.1099C85.5382 22.6635 86.1188 50.3842 76.961 49.7006C67.6909 48.9982 73.6556 21.8487 74.592 17.3441C73.8242 17.3441 73.1219 17.2317 72.5132 17.035C71.6424 28.91 69.3389 38.9119 66.2395 45.1679C61.9134 53.868 56.6416 54.046 52.9054 50.0564C50.8829 51.3488 48.7198 52.0419 46.5193 51.6579C43.8787 51.1896 42.3993 49.7099 41.7719 47.3218C40.3392 49.4196 38.6537 51.0585 36.9495 51.995C36.987 52.1636 34.234 65.3029 34.2153 65.3778M44.3376 69.3767C46.4538 66.5953 48.9633 60.8638 47.437 57.4643C45.4331 52.9596 37.1368 64.5911 44.3376 69.3767ZM31.6871 62.381C26.4527 62.0532 19.8512 62.8211 18.559 67.7003C16.8361 74.2372 26.6962 78.6201 31.6871 62.381ZM111.682 24.1431C106.972 21.83 101.813 24.5833 99.4997 29.2659C95.108 38.1721 98.1326 44.8869 101.232 45.4301C112.281 47.3687 118.34 27.4116 111.682 24.1431ZM53.5328 45.3645C58.0462 41.1034 62.9715 32.3376 63.3367 26.0536C63.7768 18.6365 54.9093 19.9195 52.2219 30.1181C51.0139 34.707 51.0327 40.9254 53.5328 45.3645ZM46.3508 25.5292C45.2271 25.7165 42.7738 25.4168 42.7364 22.8789C42.6895 20.3315 45.7983 18.5334 48.364 20.1536C50.9203 21.7738 48.8228 24.4147 47.9613 24.9017C47.0999 25.3887 46.9875 25.3606 46.3601 25.5292M35.1236 85.7376C35.4607 84.9696 35.6854 84.2017 35.751 83.4525C36.0412 80.5399 32.0335 81.2329 35.1049 85.7188L35.1236 85.7469V85.7376ZM51.0139 95.9924C49.394 112.11 63.7581 109.637 65.2563 96.2827C65.4061 93.8759 65.4904 88.7251 64.0858 86.262L63.9922 86.0841L63.8236 85.8874C62.8123 84.4639 52.662 79.5941 51.0139 95.9924ZM75.5939 81.542L75.6594 81.439C79.0491 76.0259 84.2273 66.5859 83.1037 60.2832C82.0736 54.4955 79.611 54.9263 78.7682 55.5631C74.7512 58.5974 74.5826 70.2945 75.6033 81.542M118.368 101.05C118.246 97.2005 117.216 91.6189 114.819 87.5731C114.781 92.3868 116.663 98.1183 118.368 101.05ZM105.052 82.6845C104.631 82.7782 104.191 82.8999 103.741 83.0592C86.6338 89.0435 97.7674 112.297 104.303 102.894C107.225 98.6802 108.442 86.8333 105.071 82.6939V82.6752L105.052 82.6845ZM90.2295 83.5087C90.1265 83.1528 90.0141 82.9093 89.883 82.7876C88.7032 81.7855 87.5702 81.6357 86.4934 81.8979C86.5776 84.108 88.2912 84.1642 90.2389 83.5087M86.484 78.8729C88.2725 78.5639 90.1171 78.9198 92.0367 80.5587C92.4487 80.9145 92.7952 81.4952 93.0574 82.2444C94.1717 81.645 95.1174 81.055 95.5575 80.8022C100.118 78.2642 103.461 78.1425 105.811 79.491C108.517 79.1445 111.139 79.8375 113.087 81.0269C115.137 76.6159 121.158 69.6483 138.837 66.5297C141.29 66.0989 141.946 69.7794 139.483 70.2102C134.043 71.1654 117.9 75.4359 115.942 83.7803C118.911 87.4327 120.54 92.7521 121.196 97.3129C121.42 98.8581 122.656 105.61 118.976 105.47C115.062 105.311 110.755 93.0236 112.028 84.7917C112.028 84.6793 112.047 84.492 112.075 84.2579C111.073 83.4338 109.94 82.8531 108.657 82.5909C111.813 88.5378 110.38 99.5792 106.953 104.505C101.887 111.801 94.8739 107.165 92.4206 99.8883C91.0535 105.77 88.7313 110.995 85.7162 112.26C82.8883 113.44 79.7701 111.548 77.4105 108.205C75.9778 110.967 73.7399 113.824 70.9776 112.035C69.1235 110.836 67.8126 107.043 66.8762 102.548C63.421 110.312 55.5647 112.531 51.0608 108.176C49.5532 109.703 47.6523 109.956 45.92 109.225C42.6708 116.212 30.7413 115.715 27.3516 107.099C26.5744 105.133 29.524 103.971 30.3012 105.938C33.0074 112.831 44.1128 111.407 43.5791 104.899C43.1109 99.2421 38.841 95.2338 35.3202 91.2536C32.6703 94.5689 29.3929 97.1911 26.1063 99.8321C24.4582 101.153 22.4731 98.6802 24.1211 97.3597C26.5838 95.3837 30.6477 92.1995 33.2789 88.7719C32.2957 87.4514 31.4904 86.0935 31.0316 84.6606C27.9977 75.1737 44.0286 76.9063 37.2492 88.4909C41.2381 93.3701 46.2103 98.0902 46.7441 104.636C46.7815 105.114 46.7815 105.582 46.7534 106.051C47.4276 106.491 48.3172 106.659 49.1599 105.498C47.9988 103.129 47.4463 99.8602 47.8677 95.6646C49.5719 78.695 60.1624 79.7626 64.7225 82.5347C64.8068 80.5774 67.822 80.5025 67.9156 82.5722C68.3463 91.8624 70.5094 117.645 75.9216 103.756C75.3879 101.771 74.4047 97.4908 73.459 90.2422C73.1219 90.6824 72.7848 91.1132 72.4664 91.5159C71.1836 93.136 68.6366 91.3473 69.9194 89.7271C69.9194 89.7271 71.1555 88.1819 72.8784 85.7095C71.6237 75.3517 70.2378 58.2041 76.8299 53.2219C81.465 49.7193 85.3416 54.4019 86.2874 59.74C87.617 67.1946 81.671 78.4702 76.1557 86.5055C77.1483 94.7468 77.8787 99.5605 79.4424 104.693C83.8809 112.934 86.3716 109.675 88.544 102.342C90.1921 96.7603 90.7445 90.4389 90.6134 86.5242C90.1921 86.646 89.7894 86.7303 89.4242 86.7677C81.3901 86.7677 81.5493 79.4161 86.5121 78.8823M93.8907 84.4358C93.9844 85.3068 94.0499 86.2152 94.0968 87.1704C95.2766 85.363 96.7467 83.6398 98.5258 82.0571C96.9527 82.8625 95.389 83.6866 93.8907 84.4358Z" fill="#141414"></path></g></g><defs><clipPath id="clip0_542_657"><rect width="141" height="163" fill="white"></rect></clipPath></defs></svg> 